/* XPM */
static char *29259871[] = {
/* width height ncolors chars_per_pixel */
"32 30 2 1",
/* colors */
"A s bg c None",
"B c #000000000000",
/* pixels */
"AAAAAAAAAAAAAAAAAAAAAAAAAAAAAAAA",
"AAAAAAAAAAAAAAAAAAAAAAAAAAAAAAAA",
"AAAAAAAAAAAABBBBAAAAAAAAAAAAAAAA",
"AAAAAAAAAAAABBBBAAAAAAAAAAAAAAAA",
"AAAAAAAAAAAABBBBBBAAAAAAAAAAAAAA",
"AAAAAAAAAAAABBBBBBAAAAAAAAAAAAAA",
"AAAAAAAAAABBBBBBBBAAAABBAAAAAABB",
"AAAAAAAAAABBBBBBBBAAAABBAAAAAABB",
"AAAAAAAAAABBAABBBBBBAAAABBAABBAA",
"AAAAAAAAAABBAABBBBBBAAAABBAABBAA",
"AAAAAAAABBBBAABBBBBBAAAAAABBAAAA",
"AAAAAAAABBBBAABBBBBBAAAAAABBAAAA",
"AAAAAAAABBAAAAAABBBBAAAAAAAAAAAA",
"AAAAAAAABBAAAAAABBBBAAAAAAAAAAAA",
"AAAAAABBBBAAAAAABBBBBBAAAAAAAAAA",
"AAAAAABBBBAAAAAABBBBBBAAAAAAAAAA",
"AAAAAABBAAAAAAAAAABBBBAAAAAAAAAA",
"AAAAAABBAAAAAAAAAABBBBAAAAAAAAAA",
"AAAAAABBBBBBBBBBBBBBBBBBAAAAAAAA",
"AAAAAABBBBBBBBBBBBBBBBBBAAAAAAAA",
"AAAABBBBAAAAAAAAAABBBBBBAAAAAAAA",
"AAAABBBBAAAAAAAAAABBBBBBAAAAAAAA",
"AAAABBAAAAAAAAAAAAAABBBBBBAAAAAA",
"AAAABBAAAAAAAAAAAAAABBBBBBAAAAAA",
"AABBBBAAAAAAAAAAAAAABBBBBBAAAAAA",
"AABBBBAAAAAAAAAAAAAABBBBBBAAAAAA",
"AABBBBBBBBAAAAAABBBBBBBBBBBBBBAA",
"AABBBBBBBBAAAAAABBBBBBBBBBBBBBAA",
"AAAAAAAAAAAAAAAAAAAAAAAAAAAAAAAA",
"AAAAAAAAAAAAAAAAAAAAAAAAAAAAAAAA"};
