/* XPM */
static char *annotate_max2[] = {
/* width height ncolors chars_per_pixel */
"32 30 2 1",
/* colors */
"A s bg c None",
"B c #000000000000",
/* pixels */
"AAAAAAAAAAAAAAAAAAAAAAAAAAAAAAAA",
"AAAAAAAAAAAAAAAAAAAAAAAAAAAAAAAA",
"AAAAAAAAAAAABBBBAAAAAAAAAAAAAAAA",
"AAAAAAAAAAAABBBBAAAAAAAAAAAAAAAA",
"AAAAAAAAAAAABBBBBBAAAAAAAAAAAAAA",
"AAAAAAAAAAAABBBBBBAAAAAAAAAAAAAA",
"AAAAAAAAAABBBBBBBBAAAAAAAABBAAAA",
"AAAAAAAAAABBBBBBBBAAAAAAAABBAAAA",
"AAAAAAAAAABBAABBBBBBAAAABBAABBAA",
"AAAAAAAAAABBAABBBBBBAAAABBAABBAA",
"AAAAAAAABBBBAABBBBBBAABBAAAAAABB",
"AAAAAAAABBBBAABBBBBBAABBAAAAAABB",
"AAAAAAAABBAAAAAABBBBAAAAAAAAAAAA",
"AAAAAAAABBAAAAAABBBBAAAAAAAAAAAA",
"AAAAAABBBBAAAAAABBBBBBAAAAAAAAAA",
"AAAAAABBBBAAAAAABBBBBBAAAAAAAAAA",
"AAAAAABBAAAAAAAAAABBBBAAAAAAAAAA",
"AAAAAABBAAAAAAAAAABBBBAAAAAAAAAA",
"AAAAAABBBBBBBBBBBBBBBBBBAAAAAAAA",
"AAAAAABBBBBBBBBBBBBBBBBBAAAAAAAA",
"AAAABBBBAAAAAAAAAABBBBBBAAAAAAAA",
"AAAABBBBAAAAAAAAAABBBBBBAAAAAAAA",
"AAAABBAAAAAAAAAAAAAABBBBBBAAAAAA",
"AAAABBAAAAAAAAAAAAAABBBBBBAAAAAA",
"AABBBBAAAAAAAAAAAAAABBBBBBAAAAAA",
"AABBBBAAAAAAAAAAAAAABBBBBBAAAAAA",
"AABBBBBBBBAAAAAABBBBBBBBBBBBBBAA",
"AABBBBBBBBAAAAAABBBBBBBBBBBBBBAA",
"AAAAAAAAAAAAAAAAAAAAAAAAAAAAAAAA",
"AAAAAAAAAAAAAAAAAAAAAAAAAAAAAAAA"};
