/* XPM */
static char *41781202[] = {
/* width height ncolors chars_per_pixel */
"32 32 40 2",
/* colors */
/*"AA c #FFFFFFFFFFFF",*/
"AA s bg c None",
"BA c #E7E7EFEFFFFF",
"CA c #E7E7EFEFEFEF",
"DA c #DEDEF7F7D6D6",
"EA c #D6D6DEDEE7E7",
"FA c #CECEE7E7ADAD",
"GA c #CECED6D6E7E7",
"HA c #C6C6DEDEF7F7",
"IA c #C6C6CECEDEDE",
"JA c #BDBDC6C6D6D6",
"KA c #B5B5D6D6EFEF",
"LA c #B5B5D6D69494",
"MA c #B5B5BDBDD6D6",
"NA c #ADADD6D66B6B",
"OA c #ADADB5B5CECE",
"PA c #A5A5CECEEFEF",
"AB c #9C9CEFEF5252",
"BB c #9C9CC6C6E7E7",
"CB c #9C9CADADC6C6",
"DB c #9494A5A5BDBD",
"EB c #8C8CADADBDBD",
"FB c #8484BDBDE7E7",
"GB c #7B7BA5A5C6C6",
"HB c #7B7B9494ADAD",
"IB c #7373ADADD6D6",
"JB c #6B6B9C9CBDBD",
"KB c #6B6B8C8CA5A5",
"LB c #63639494ADAD",
"MB c #636384849C9C",
"NB c #5A5A9C9CCECE",
"OB c #5A5A8C8CA5A5",
"PB c #5A5A7B7B9C9C",
"AC c #52528C8CB5B5",
"BC c #525284849C9C",
"CC c #4A4A7B7B9494",
"DC c #42428484ADAD",
"EC c #393973739C9C",
"FC c #313163638484",
"GC c #31315A5A8484",
"HC c #212152527B7B",
/* pixels */
"AAAAAAAAAAAAOBOBOBOBJBJBKBJBKBLBACACDCCCECECEBEBEAEAAAAAAAAAAAAA",
"AAAAAAAAAAAAOBOBOBOBJBJBKBOBJBOBACJBECACECECEBDBEAEAAAAAAAAAAAAA",
"GCGCGCGCGCGCOBOBHAGAHAKAHAPAPAPABBFBFBFBNBJBIBIBNBJBAABAAAAAAAAA",
"GCGCGCGCGCGCOBOBKAHAHAGAKAKAJAPABBBBFBFBNBNBIBGBNBNBCAAAAAAAAAAA",
"GCGCDBDBDBDBOBOBKAHAIBIBIBIBIBIBIBIBIBIBIBIBAAAABBBBJBOBAABAAAAA",
"GCGCDBDBDBDBCCPBKAKAIBIBIBIBIBIBIBIBIBIBIBIBAAAAFBMAJBJBCAAAAAAA",
"GCGCDBEBEBEBPBCCKAKAKAKAKAKAKAKAKAKAKAKAGBEBAAAAAAAAFBBBJBKBAAAA",
"GCGCDBHBEBEBCCCCKAKAKAKAKAKAKAKAKAKAKAKAEBJBAAAAAAAABBBBJBJBAAAA",
"GCGCDBDBDBEBOBCCKAKAIBIBIBIBFCFCFCFCFCFCFCFCKBJBJBACKBKBACACAAAA",
"GCGCDBDBEBEBCCOBKAKAIBIBIBIBFCFCFCFCFCFCFCGCJBOBJBJBKBJBDCACAAAA",
"GCGCDBHBDBEBPBCCKAKAKAKAKAKAKAKAFCFCAAFADADAGCFCMABBFBIBJBDCAAAA",
"GCGCDBDBEBDBCCCCKAKAKAKAKAKAKAKAFCFCFADACACAFCFCBBBBFBBBDCJBAAAA",
"GCGCDBHBGCGCGCGCGCGCGCGCGCGCGCGCPBPBFCFCFALADACAHCFCECFCCCFCCCCC",
"GCGCDBDBGCGCGCGCGCGCGCGCGCGCGCGCGCPBFCFCLAFACADAFCFCCCPBFCCCCCCC",
"GCGCDBDBGCGCOAMAMAIAIAIAIAIACAEACAEACACAFCFCNALADACAHCHCAAAAFCCC",
"GCGCHBEBGCGCOAOAIAMAIAIAIAGAEAEAEAEACACAPBFCLALADAFAHCHCAAAACCCC",
"GCGCDBDBGCGCOAMAMAMAIAIAIAGAEAEAEACACACAGCGCLALACADAHCHCAAOAFCCC",
"GCGCHBHBGCGCMADBMAMAMAMAIAJAGAGAEAIAIACAGCFCLALAFADAHCHCGAGAHBKB",
"GCGCHBHBGCGCMAOAMAMAJAJAIAJAGAGAGCFCFCGCFCPBNANAAAFAHCHCHCHCHCHC",
"GCGCGCGCDBDBOADBOAOAMAMAMAJAIAIAFCFCFCFCFCGCNANAFADAHCHCHCHCHCHC",
"GCGCGCGCDBDBDBOAOAOAOAJAJAJAJAIAFCFCABABABABABABABABABABDADAHCHC",
"GCGCGCGCDBEBDBDBDBDBOADBJAOAJAIAFCGCABABABABNAABABNAABABDAFAHCHC",
"GCGCGCGCDBHBDBDBDBDBOAOAOAJAJAMAFCPBABNAABABABABABABABABCACAHCHC",
"GCGCPBMBHBHBDBEBDBCBDBDBOADBMAMAIAMAGCHCABABABABABABCAFAHCHCAAAA",
"GCGCMBPBHBHBDBHBDBEBDBOAOAOAOAJAMAIAFCFCABABABABABABFACAHCHCAAAA",
"GCGCMBMBMBHBHBHBEBDBDBEBDBDBOAOAOAOAIAIAGCHCABABEAFAHCHCAAAAAAAA",
"GCGCMBMBDBMBDBHBDBHBDBDBDBOADBOAOAMAMAMAFCFCNAABFACAHCHCAAAAAAAA",
"GCGCGCGCGCGCGCGCGCGCGCGCGCGCGCGCGCGCGCGCGCGCFCFCHCHCPBPBAAAAAAAA",
"GCGCGCGCGCGCGCGCGCGCGCGCGCGCGCGCGCGCGCGCGCFCFCFCHCHCBCPBAAAAAAAA",
"AAAAAAAAAAAAAAAAAAAAAAAAAAAAAAAAAAAAAAAAAAAAAAAAAAAAAAAAAAAAAAAA",
"AAAAAAAAAAAAAAAAAAAAAAAAAAAAAAAAAAAAAAAAAAAAAAAAAAAAAAAAAAAAAAAA",
"AAAAAAAAAAAAAAAAAAAAAAAAAAAAAAAAAAAAAAAAAAAAAAAAAAAAAAAAAAAAAAAA"};
