/* XPM */
static char *save_image copy[] = {
/* width height ncolors chars_per_pixel */
"32 32 71 2",
/* colors */
/*"AA c #FFFFFFFFFFFF",*/
"AA s bg c None",
"BA c #F7F7F7F7EFEF",
"CA c #EFEFF7F7F7F7",
"DA c #EFEFEFEFF7F7",
"EA c #EFEFEFEFEFEF",
"FA c #E7E7DEDEDEDE",
"GA c #DEDEE7E7EFEF",
"HA c #DEDEE7E7DEDE",
"IA c #DEDEDEDEE7E7",
"JA c #DEDEDEDEDEDE",
"KA c #D6D6E7E7F7F7",
"LA c #CECED6D6DEDE",
"MA c #CECECECED6D6",
"NA c #CECECECECECE",
"OA c #C6C6DEDEFFFF",
"PA c #C6C6BDBDBDBD",
"AB c #BDBDCECEDEDE",
"BB c #BDBDC6C6C6C6",
"CB c #BDBDBDBDC6C6",
"DB c #BDBDBDBDBDBD",
"EB c #B5B5D6D6EFEF",
"FB c #B5B5B5B5ADAD",
"GB c #ADADBDBDCECE",
"HB c #ADADB5B5BDBD",
"IB c #ADADADADADAD",
"JB c #A5A5ADADBDBD",
"KB c #A5A59C9CA5A5",
"LB c #9C9CA5A5B5B5",
"MB c #9C9CA5A5A5A5",
"NB c #9C9C9C9C9C9C",
"OB c #94948C8C9494",
"PB c #94948C8C8C8C",
"AC c #8C8C9C9CA5A5",
"BC c #8C8C8C8C8C8C",
"CC c #8484A5A5BDBD",
"DC c #84849494B5B5",
"EC c #7B7B9494B5B5",
"FC c #7B7B9494ADAD",
"GC c #7B7B94949C9C",
"HC c #7B7B7B7B7B7B",
"IC c #73738C8CADAD",
"JC c #73738C8C9C9C",
"KC c #73737B7B8C8C",
"LC c #73736B6B6363",
"MC c #6B6B8484ADAD",
"NC c #6B6B84849C9C",
"OC c #6B6B7B7B8C8C",
"PC c #6B6B73737B7B",
"AD c #6B6B6B6B6B6B",
"BD c #63638484BDBD",
"CD c #63636B6B7B7B",
"DD c #5A5AADADFFFF",
"ED c #5A5A7B7B9C9C",
"FD c #5A5A6B6B7B7B",
"GD c #5A5A63636B6B",
"HD c #5A5A5A5A6363",
"ID c #5A5A5A5A5A5A",
"JD c #4A4A73739494",
"KD c #4A4A73738C8C",
"LD c #4A4A52525A5A",
"MD c #4A4A4A4A4A4A",
"ND c #42427B7BD6D6",
"OD c #42426B6B8C8C",
"PD c #42425A5A6B6B",
"AE c #424239393939",
"BE c #393963638C8C",
"CE c #39395A5A8C8C",
"DE c #292952527B7B",
"EE c #181842426B6B",
"FE c #181821212121",
"GE c #181818181818",
/* pixels */
"AAAAAAAAAAAAAAJANANAEAAAAAAAAAAAEAJANADBIBIBNBNBBCHCHCNBJAAAAAAA",
"AAAAAAEAEAJAIBDBJAHAKBFBKBHCHCBCBCNBNBIBIBIBIBIBIBDBDBNADBBCEAAA",
"AAAAEAHCIBNBIBJAJAJAJANBIBDBDBNANANAJANAFAEAEAEAMABBABABCBDBNBAA",
"AAAANABCNADBNADBNAJBMBJAEAEAEAEAEAEAJAEAJAJAJAJACBEBOAEBKAHBBCAA",
"AAAANAHCBCIBJAEABAFDCEBCJAJAJAJANAJAJAJAJAJAJAHACBGBGBDBGBPABCAA",
"AAAANAADNBNBNAFAJAEDCEPCJAJAJAMAJAJAJAEAEAJAJAEAEAFANAJAJANANBAA",
"AAAAJALCNBNBDBJAEAKBLCNAJAJAJAJAJAJAEAJANADBDBNAJAEAJANAJANABCAA",
"AAAANAHCBCBCNAJAJAEAEAJAJAJAJAJAJAEAJADBDBNANADBDBBBNAJANANABCAA",
"AAAANAPCNBNBDBHAJAJAJAJAJAJAJAJAEAJADBLAJAJADBNAJAJANADBJANABCAA",
"AAAANAHCBCPBDBEAJAJAJAJAJAJAJAJAEALADBJANADBJABANANAJANANANABCAA",
"AAAANAADBCNBPAJAJAJAJAJAJAJAJAJAJADBNANADBNAEAIBFDMDHCEADBNANBAA",
"AAAALALCBCBCDBEAJAEAJAJAJAJAJAEAJAIBNAPAIBJADBBDECPDAEDBDBNABCAA",
"AAAANAPCBCBCNAJAJAJAJAEAJAJAJAJAJAIBFBDBIBJABCNDDDCEMDNBDBNABCAA",
"GDADGDIDIDHDLDIDPDHDHDLDLDIDGDGDGDDBKBFBIBNANBCECELDMDIBDBNABCAA",
"GDPDFDKBMBMBIBMBIBMBIBMBIBKBPCPDPDNANBIBIBIBDBIDFEGEIDFBDBNANBAA",
"GDDENCKAAAAAAAAAAAAAAAAAAACANCCEPDDBFBOBIBNBIBNAOBBCDBIBJANABCAA",
"CDFCEDEAJADBDBDBDBDBDBDBNAAANCNCKCJADBDBNBNBNBBCNBIBDBNAJANABCAA",
"PCFCEDGAAAAAAAAAAAAAAAAAAACANCMCOCJAJANAPADBDBNAJAJANANANAIBNBAA",
"CDFCNCGAJADBBBNACBBBNADBLAAAOCFCPCJAJALALANAPAIBNBBCADADIDADEAAA",
"PCICEDEABAEAEAFAEAEAEAEAEAAANCMCOCNBBCLCADIDADHCOBIBJAJAAAAAAAAA",
"CDFCNCGBABBBABABBBABBBABNABBNCFCOCBCHBJAJAAAAAAAAAAAAAAAAAAAAAAA",
"CDFCFCEDOCEDKDOCKDOCEDKDOCJDFCFCOCAAAAAAAAAAAAAAAAAAAAAAAAAAAAAA",
"PCFCICICICACECICDCICFCACBDACICECOCAAAAAAAAAAAAAAAAAAAAAAAAAAAAAA",
"CDICICACNCJDEDEDEDEDEDJDOCEDFCECPCAAAAAAAAAAAAAAAAAAAAAAAAAAAAAA",
"PCFCICICJDODODODODODKDJDJDEDNCFCOCAAAAAAAAAAAAAAAAAAAAAAAAAAAAAA",
"CDECACCEJCHBHBLBCBNAJAGACAAABEMCOCAAAAAAAAAAAAAAAAAAAAAAAAAAAAAA",
"CDFCECBEFCJCEEOCBEGBLAIADACABENCOCAAAAAAAAAAAAAAAAAAAAAAAAAAAAAA",
"PCFCICBEGCJCEEBEBEJBLAJAKABABEMCOCAAAAAAAAAAAAAAAAAAAAAAAAAAAAAA",
"CDFCACCEFCNCEEBEBEMBNALAEACABENCPCAAAAAAAAAAAAAAAAAAAAAAAAAAAAAA",
"PCECFCBEFCMBOCMBCCJAGADACAAABEMCOCAAAAAAAAAAAAAAAAAAAAAAAAAAAAAA",
"NBNCICBEGCDBCBLAEAHAEAJAJALABENCNBAAAAAAAAAAAAAAAAAAAAAAAAAAAAAA",
"CAHCPCHCPCPCPCPCADCDADCDPCPCHCPCEAAAAAAAAAAAAAAAAAAAAAAAAAAAAAAA"};
