/* XPM */
static char *save_graph copy[] = {
/* width height ncolors chars_per_pixel */
"32 32 45 2",
/* colors */
/*"AA c #FFFFFFFFFFFF",*/
"AA s bg c None",
"BA c #EFEFF7F7F7F7",
"CA c #EFEFEFEFEFEF",
"DA c #DEDEE7E7EFEF",
"EA c #DEDEDEDEE7E7",
"FA c #DEDEDEDEDEDE",
"GA c #CECED6D6DEDE",
"HA c #CECECECECECE",
"IA c #BDBDCECED6D6",
"JA c #BDBDBDBDC6C6",
"KA c #BDBDBDBDBDBD",
"LA c #ADADBDBDCECE",
"MA c #ADADB5B5BDBD",
"NA c #A5A5A5A5ADAD",
"OA c #9C9CA5A5B5B5",
"PA c #9C9CA5A5A5A5",
"AB c #94949C9C9C9C",
"BB c #84849C9CADAD",
"CB c #7B7B9494B5B5",
"DB c #7B7B9494ADAD",
"EB c #7B7B94949C9C",
"FB c #7B7B84848C8C",
"GB c #7B7B7B7BFFFF",
"HB c #73738C8CADAD",
"IB c #73738C8C9C9C",
"JB c #73737B7B8C8C",
"KB c #6B6B8484ADAD",
"LB c #6B6B84849C9C",
"MB c #6B6B7B7B8C8C",
"NB c #6B6B6B6B7373",
"OB c #636373737B7B",
"PB c #63636B6B6B6B",
"AC c #5A5A7B7B9C9C",
"BC c #5A5A6B6B7B7B",
"CC c #5A5A63636B6B",
"DC c #52525A5A6B6B",
"EC c #4A4A73739494",
"FC c #4A4A73738C8C",
"GC c #42426B6B8C8C",
"HC c #42425A5A6B6B",
"IC c #393963638C8C",
"JC c #31315A5A8484",
"KC c #292952527B7B",
"LC c #181842426B6B",
"MC c #10102121EFEF",
/* pixels */
"AAAAAAAAAAAAAAAAAAAAAAAAAAAAAAAAAAAAAAAAAAAAAAAAAAAAAAAAAAAAAAAA",
"MCGBAAAAAAAAAAAAAAAAAAAAAAAAAAAAAAAAAAAAAAAAAAAAAAAAAAAAAAAAAAAA",
"AAMCGBAAAAAAAAAAAAAAAAAAAAAAAAAAAAAAAAAAAAAAAAAAAAAAAAAAAAAAAAAA",
"AAGBMCAAAAAAAAAAAAAAAAAAAAAAAAAAAAAAAAAAAAAAAAAAAAAAAAAAAAAAAAAA",
"AAAAMCAAAAAAAAAAAAAAAAAAAAAAAAAAAAAAAAAAAAAAAAAAAAAAAAAAAAAAGBMC",
"AAAAMCAAAAAAAAAAAAAAAAAAAAAAAAAAAAAAAAGBMCAAAAAAAAAAAAAAAAAAMCAA",
"AAAAMCGBAAAAAAAAAAAAAAAAAAAAAAAAAAAAGBMCAAMCGBAAAAAAAAAAAAGBMCAA",
"AAAAGBMCAAAAAAAAGBMCMCMCGBAAAAAAAAGBMCAAAAAAMCGBAAAAAAAAAAMCGBAA",
"AAAAAAMCGBAAAAGBMCAAAAAAMCGBAAAAGBMCAAAAAAAAAAMCGBAAAAAAGBMCAAAA",
"AAAAAAGBMCAAGBMCAAAAAAAAAAMCAAAAMCAAAAAAAAAAAAAAMCGBAAAAMCAAAAAA",
"AAAAAAAAMCGBMCAAAAAAAAAAAAGBMCMCGBAAAAAAAAAAAAAAAAMCGBAAMCAAAAAA",
"AAAAAAAAMCMCAAAAAAAAAAAAAAAAAAAAAAAAAAAAAAAAAAAAAAAAMCAAMCAAAAAA",
"AAAAAAAAAAAAAAAAAAAAAAAAAAAAAAAAAAAAAAAAAAAAAAAAAAAAGBMCAAAAAAAA",
"CCPBPBDCDCDCDCDCDCDCDCDCDCDCCCPBPBAAAAAAAAAAAAAAAAAAAAAAAAAAAAAA",
"CCHCCCABNANANANANANANANANAPAOBHCDCAAAAAAAAAAAAAAAAAAAAAAAAAAAAAA",
"CCKCMBBAAAAAAAAAAAAAAAAAAAAALBHCHCAAAAAAAAAAAAAAAAAAAAAAAAAAAAAA",
"NBDBLBDAFAKAKAKAKAKAKAKAHAAAMBDBOBAAAAAAAAAAAAAAAAAAAAAAAAAAAAAA",
"OBDBMBDAAAAAAAAAAAAAAAAAAABALBKBMBAAAAAAAAAAAAAAAAAAAAAAAAAAAAAA",
"BCDBECCAFAKAHAKAHAKAHAKAGAAAFBKBOBAAAAAAAAAAAAAAAAAAAAAAAAAAAAAA",
"OBHBLBDAAACACACACACADACAAAAAFCDBMBAAAAAAAAAAAAAAAAAAAAAAAAAAAAAA",
"NBDBLBMAHAMAKAGAKAKAGAKAKAHALBDBMBAAAAAAAAAAAAAAAAAAAAAAAAAAAAAA",
"OBDBDBLBFCFCFBFCFCFBFCFCLBFCDBDBMBAAAAAAAAAAAAAAAAAAAAAAAAAAAAAA",
"NBCBHBDBDBCBDBDBDBDBDBBBDBDBDBDBMBAAAAAAAAAAAAAAAAAAAAAAAAAAAAAA",
"OBHBDBDBLBACECACACECMBACECACHBCBOBAAAAAAAAAAAAAAAAAAAAAAAAAAAAAA",
"NBCBHBHBFCGCFCICFCFCECFCECACLBDBMBAAAAAAAAAAAAAAAAAAAAAAAAAAAAAA",
"OBDBDBICDBMAOAMAJAIAGAEAAAAAICKBJBAAAAAAAAAAAAAAAAAAAAAAAAAAAAAA",
"NBDBDBICEBIBKCGCGCLAGAEACABAICLBMBAAAAAAAAAAAAAAAAAAAAAAAAAAAAAA",
"OBDBHBICDBIBLCGCICMAGAFADAAAICKBMBAAAAAAAAAAAAAAAAAAAAAAAAAAAAAA",
"NBCBBBJCEBLBLCICJCNAGAGADABAICLBOBAAAAAAAAAAAAAAAAAAAAAAAAAAAAAA",
"OBDBDBICDBPAMBPAOAGACADAAAAAICKBJBAAAAAAAAAAAAAAAAAAAAAAAAAAAAAA",
"FBHBIBICABMAJAIACADAFADAFAGACCLBIBAAAAAAAAAAAAAAAAAAAAAAAAAAAAAA",
"CAPBPBPBBCPBBCPBCCCCPBPBPBCCOBCCHAAAAAAAAAAAAAAAAAAAAAAAAAAAAAAA"};
