/* XPM */
static char *29260959[] = {
/* width height ncolors chars_per_pixel */
"32 30 2 1",
/* colors */
"A s bg c None",
"B c #000000000000",
/* pixels */
"AAAAAAAAAAAAAAAAAAAAAAAAAABBAAAA",
"AAAAAAAAAAAAAAAAAAAAAAAAAABBAAAA",
"AAAAAAAAAAAABBBBAAAAAAAABBBBBBAA",
"AAAAAAAAAAAABBBBAAAAAAAABBBBBBAA",
"AAAAAAAAAAAABBBBBBAAAAAABBBBBBAA",
"AAAAAAAAAAAABBBBBBAAAAAABBBBBBAA",
"AAAAAAAAAABBBBBBBBAAAAAAAABBAAAA",
"AAAAAAAAAABBBBBBBBAAAAAAAABBAAAA",
"AAAAAAAAAABBAABBBBBBAAAAAAAAAAAA",
"AAAAAAAAAABBAABBBBBBAAAAAAAAAAAA",
"AAAAAAAABBBBAABBBBBBAAAAAAAAAAAA",
"AAAAAAAABBBBAABBBBBBAAAAAAAAAAAA",
"AAAAAAAABBAAAAAABBBBAAAAAAAAAAAA",
"AAAAAAAABBAAAAAABBBBAAAAAAAAAAAA",
"AAAAAABBBBAAAAAABBBBBBAAAAAAAAAA",
"AAAAAABBBBAAAAAABBBBBBAAAAAAAAAA",
"AAAAAABBAAAAAAAAAABBBBAAAAAAAAAA",
"AAAAAABBAAAAAAAAAABBBBAAAAAAAAAA",
"AAAAAABBBBBBBBBBBBBBBBBBAAAAAAAA",
"AAAAAABBBBBBBBBBBBBBBBBBAAAAAAAA",
"AAAABBBBAAAAAAAAAABBBBBBAAAAAAAA",
"AAAABBBBAAAAAAAAAABBBBBBAAAAAAAA",
"AAAABBAAAAAAAAAAAAAABBBBBBAAAAAA",
"AAAABBAAAAAAAAAAAAAABBBBBBAAAAAA",
"AABBBBAAAAAAAAAAAAAABBBBBBAAAAAA",
"AABBBBAAAAAAAAAAAAAABBBBBBAAAAAA",
"AABBBBBBBBAAAAAABBBBBBBBBBBBBBAA",
"AABBBBBBBBAAAAAABBBBBBBBBBBBBBAA",
"AAAAAAAAAAAAAAAAAAAAAAAAAAAAAAAA",
"AAAAAAAAAAAAAAAAAAAAAAAAAAAAAAAA"};
