/* XPM */
static char *6494361[] = {
/* width height ncolors chars_per_pixel */
"32 30 4 1",
/* colors */
"A c #FFFFFFFFFFFF",
"B s bg c None",
"C c #000000000000",
"D c #000000000000",
/* pixels */
"BBBBBBBBBBBBBBBBBBBBBBBBBBBBBBBB",
"BBBBBBBBBBBBBBBBBBBBBDBBBBBBBBBD",
"BBBBBBBBBBBBCCCCBBBBBDDBBBBBBBDD",
"BBBBBBBBBBBBCCCCBBBBBDBDBBBBBDBD",
"BBBBBBBBBBBBCCCCCCBBBDBBDBBBDBBD",
"BBBBBBBBBBBBCCCCCCBBBDBBBDBDBBBD",
"BBBBBBBBBBCCCCCCCCBBBDBBBBDBBBBD",
"BBBBBBBBBBCCCCCCCCBBBDBBBBBBBBBD",
"BBBBBBBBBBCCBBCCCCCCBDBBBBBBBBBD",
"BBBBBBBBBBCCBBCCCCCCBDBBBBBBBBBD",
"BBBBBBBBCCCCBBCCCCCCBBBBBBBBBBBB",
"BBBBBBBBCCCCBBCCCCCCBBBABBBBBBBB",
"BBBBBBBBCCBBBBBBCCCCBBBBBBBBBBBB",
"BBBBBBBBCCBBBBBBCCCCBBBBBBBBBBBB",
"BBBBBBCCCCBBBBBBCCCCCCBBBBBBBBBB",
"BBBBBBCCCCBBBBBBCCCCCCBBBBBBBBBB",
"BBBBBBCCBBBBBBBBBBCCCCBBBBBBBBBB",
"BBBBBBCCBBBBBBBBBBCCCCBBBBBBBBBB",
"BBBBBBCCCCCCCCCCCCCCCCCCBBBBBBBB",
"BBBBBBCCCCCCCCCCCCCCCCCCBBBBBBBB",
"BBBBCCCCBBBBBBBBBBCCCCCCBBBBBBBB",
"BBBBCCCCBBBBBBBBBBCCCCCCBBBBBBBB",
"BBBBCCBBBBBBBBBBBBBBCCCCCCBBBBBB",
"BBBBCCBBBBBBBBBBBBBBCCCCCCBBBBBB",
"BBCCCCBBBBBBBBBBBBBBCCCCCCBBBBBB",
"BBCCCCBBBBBBBBBBBBBBCCCCCCBBBBBB",
"BBCCCCCCCCBBBBBBCCCCCCCCCCCCCCBB",
"BBCCCCCCCCBBBBBBCCCCCCCCCCCCCCBB",
"BBBBBBBBBBBBBBBBBBBBBBBBBBBBBBBB",
"BBBBBBBBBBBBBBBBBBBBBBBBBBBBBBBB"};
