/* XPM */
static char *41754043[] = {
/* width height ncolors chars_per_pixel */
"32 32 24 1",
/* colors */
/*"A c #FFFFFFFFFFFF",*/
"A s bg c None",
"B c #E7E7EFEFEFEF",
"C c #DEDEF7F7D6D6",
"D c #D6D6DEDEE7E7",
"E c #CECEE7E7ADAD",
"F c #CECED6D6E7E7",
"G c #C6C6CECEDEDE",
"H c #BDBDC6C6D6D6",
"I c #B5B5D6D69494",
"J c #B5B5BDBDD6D6",
"K c #ADADB5B5CECE",
"L c #9C9CEFEF5252",
"M c #9494A5A5BDBD",
"N c #8C8CA5A5BDBD",
"O c #7B7B9494ADAD",
"P c #7B7B7B7BFFFF",
"Q c #636384849C9C",
"R c #5A5A7B7B9C9C",
"S c #424273739494",
"T c #313163638484",
"U c #31315A5A8484",
"V c #212152527B7B",
"W c #10102121EFEF",
"X c #000000000000",
/* pixels */
"AAAAAAXXXXXXXXXXXXXXXXXXXXXXXXAA",
"AAAAAAXAAAAAAAAAAAAAAWAAAAAAAXAA",
"TTTTTTXAAAAAAAAAAAAAPWPAAAAAAXAA",
"TTTTTTXAAAAAWPAAAAAPWAWPAAAAAXAA",
"TTMMMMXAAAPWAWPAAAPWAAAWPAAAAXAA",
"TTMMMMXAAPWAAAWPAPWAAAAAWPAAAXAA",
"TTMNOMXAPWAAAAAWPWAAAAAAAWPAAXAA",
"TUMOMNXPWAAAAAAAWAAAAAAAAAWPAXAA",
"TTMMMNXWAAAAAATTTTTTTTAAAAAWPXAA",
"TUMMONXAAAAAAATTTTTTTTAAAAAAWXAA",
"TTMMMOXAAAAAAAAATTBBBBTTAAAAAXAA",
"TTMOMMXAAAAAAAAATTBBBBTTAAAAAXAA",
"TTMMSSSSSSSSSSSSSSUTEEEETTTRTSSS",
"TUMNSSSSSSSSSSSSSSTTEEEETTRTRSRS",
"TTMMSSKHHHGGFFDDBDBBTTIICCVVAATR",
"TTMOSSHJHJGHFFDDDDBBUTIICBVVAASS",
"TTMMSSKHHHHGFFFKDBBBUUIICCVVAHSS",
"TUOOSSKKKKHHHHFGDGGBUTIICCVVFDQQ",
"TTOOSSKKKHHHHFFFUTTUTTIICCVVVVVV",
"STTUMNKMKKKKHHHGTTTTUUIICCVVVVVV",
"UTTTMMMKKMHKHHHGTTLLLLLLLLLLCCVV",
"USTTMNMMMMKKHKHGTTLLLLLLLLLLCCVV",
"TUTTMMMMMKMKKHHJTULLLLLLLLLLBEVV",
"TUQQOONNMMNKKKJJGKUULLLLLLBEVVAA",
"TTQROOMNMMMNJMHKJGUULLLLLLEBVVAA",
"VVQQOOOONNMMMMKKJJJGUVLLBEVVAAAA",
"VVQQQOONNMMMMKMKHKHJTULLDBVVAAAA",
"TUSSSSSSSSSSSSSSSSSSTUUUVVRQAAAA",
"TUSSSSSSSSSSSSSSSSSSSTTTVVRSAAAA",
"AAAAAAAAAAAAAAAAAAAAAAAAAAAAAAAA",
"AAAAAAAAAAAAAAAAAAAAAAAAAAAAAAAA",
"AAAAAAAAAAAAAAAAAAAAAAAAAAAAAAAA"};
