/* XPM */
static char *26047995[] = {
/* width height ncolors chars_per_pixel */
"24 24 51 2",
/* colors */
"AA c #FFFFFFFFFFFF",
"BA c #FFFFDEDEA5A5",
"CA c #FFFFCECE8C8C",
"DA c #F7F7CECE9494",
"EA c #F7F7CECE7B7B",
"FA c #F7F7C6C66B6B",
"GA c #F7F7BDBD5252",
"HA c #EFEFF7F7FFFF",
"IA c #EFEFBDBD8484",
"JA c #EFEFBDBD5A5A",
"KA c #EFEFB5B57B7B",
"LA c #EFEFADAD6B6B",
"MA c #E7E7E7E7E7E7",
"NA c #E7E7E7E7DEDE",
"OA c #E7E7DEDEDEDE",
"PA c #E7E7D6D6C6C6",
"AB c #E7E7CECEBDBD",
"BB c #E7E7C6C6A5A5",
"CB c #DEDEF7F7F7F7",
"DB c #DEDEEFEFFFFF",
"EB c #DEDEE7E7E7E7",
"FB c #DEDEB5B59494",
"GB c #DEDEADAD8484",
"HB c #DEDEA5A57B7B",
"IB c #DEDEA5A56B6B",
"JB c #DEDE9C9C5252",
"KB c #DEDE8C8C4A4A",
"LB c #D6D6DEDEEFEF",
"MB c #D6D67B7B3131",
"NB c #CECEE7E7F7F7",
"OB c #CECEE7E7EFEF",
"PB c #CECEDEDEEFEF",
"AC c #CECE9C9C7B7B",
"BC c #C6C6DEDEDEDE",
"CC c #BDBDDEDEE7E7",
"DC c #BDBDDEDEDEDE",
"EC c #B5B5CECED6D6",
"FC c #ADADD6D6DEDE",
"GC c #ADADCECED6D6",
"HC c #ADADBDBDBDBD",
"IC c #9C9CCECED6D6",
"JC c #9C9CC6C6C6C6",
"KC c #8C8CBDBDC6C6",
"LC c #8484C6C6CECE",
"MC c #7373ADADBDBD",
"NC c #6B6BADADBDBD",
"OC c #5A5A9C9CB5B5",
"PC c #5A5A9C9CADAD",
"AD c #4A4A9494ADAD",
"BD c #42428C8CA5A5",
"CD c #39398C8C9C9C",
/* pixels */
"MAMAMAMAMAMAMAMAMAMAMAMAMAMAMAMAMAMAMAMAMAMAMAMA",
"MAMAMAMAMAMAMAMAMAMAMAMAMAMAMAMAMAMAMAMAMAMAMAMA",
"MAMAMAMAMAMAMAMAMAMAMAMAMAMAMAMAMAMAMAMAABJBJBOA",
"MAMAMAMAMAMAMAMAEBMAMAMAEBMAMAMAEBNAOAACIBDALAFB",
"MAMAMAMAMAMAMAMAMAMAMAMAMAMAMAMAMAFBJBDADACAJAMB",
"MAMAMAMAMAOAPBPBBCPBPBMAMAEBOAOAJBKABACAFAJAIBKB",
"MAMAMAMAPBBCGCHCGCJCGCBCLBOAGBJBBBDAEAJAJAJBHBOA",
"MAEBOAPBGCGCDCCCDCCCECGCECACIABACAEAJAIBJBPAMAMA",
"MAMAPBJCDCCCPBDCCCECCCGCFCHCIBKAGAJAKBFBLBMAMAMA",
"MALBICECBDBDBDBDBDBDBDBDBDBDBDBDBDBDBDBDBDBDMAMA",
"MABCGCPBDBDBHADBEBNBOBDCDCFCGCICPAAAAAAAAAAAMAMA",
"NBICDCCCDBDBCBEBCBOBOBCCDCFCGCICAAAAAAAAAAAAMAMA",
"PBGCECDCDBEBCBOCBDBDBDBDCDMCICDBAAAAAAAAAAAAMAMA",
"PBICDCDCDCOBNBEBOBOBPBDCDCDCJCDBAAAAAAAAAAAAMAMA",
"PBICGCDCDCOBOBNCPCPCADBDBDMCGCDBAAAAAAAAAAAAEBMA",
"LBICDCGCDCCCOBKCJCLCKCKCKCKCICLBAAAAAAAAAAAAMAMA",
"MAPBGCGCGCDCDCNCNCPCNCPCPCKCECAAAAAAAAAAAAAAMAMA",
"MABCECGCGCDCDCMCNCMCPCNCMCKCDBAAAAAAAAAAAAAAMAMA",
"MAMALBGCGCICFCDCGCDCGCGCGCPBAAAAAAAAAAAAAAAAMAMA",
"MAMANALBDBDCGCJCICJCJCDCLBHAAAAAAAAAAAAAAAAAMAMA",
"MAMAMAMAAAHADBDBDBDBDBMAAAAAAAAAAAAAAAAAAAAAMAMA",
"MAMAMAMABDBDBDBDBDBDBDBDBDBDBDBDBDBDBDBDBDBDMAMA",
"MAMAMAMAMAMAMAMAMAMAMAMAMAMAMAMAMAMAMAMAMAMAMAMA",
"MAMAMANAMAMAMAMANAMAMAMAMAMAMAMAMAMAMAMAMAMAMAMA"};
