/* XPM */
static char *29264256[] = {
/* width height ncolors chars_per_pixel */
"32 30 28 2",
/* colors */
"AA c #FFFFFFFFFFFF",
"BA c #EFEFFFFFFFFF",
"CA c #E7E7DEDED6D6",
"DA c #DEDEBDBDA5A5",
"EA c #DEDE94946B6B",
"FA c #D6D6EFEFFFFF",
"GA c #CECED6D6E7E7",
"HA c #C6C6CECEDEDE",
"IA c #BDBDDEDEEFEF",
"JA c #BDBDCECED6D6",
"KA c #ADADCECED6D6",
"LA c #ADADBDBDCECE",
"MA c #A5A5DEDEF7F7",
"NA c #A5A56B6B5A5A",
"OA c #9C9CB5B5C6C6",
"PA c #9494D6D6EFEF",
"AB c #8C8CB5B5C6C6",
"BB c #8C8CADADBDBD",
"CB c #8484CECEEFEF",
"DB c #7373C6C6E7E7",
"EB c #73739C9CB5B5",
"FB c #6B6B9C9CBDBD",
"GB c #6363B5B5DEDE",
"HB c #5A5A8C8CA5A5",
"IB c #4A4ABDBDE7E7",
"JB c #3131B5B5E7E7",
"KB c #000084840000",
"LB s bg c None",
/* pixels */
"LBLBLBLBLBLBLBLBLBLBLBLBKAKABBBBEBEBEBEBBBBBLALALBLBLBLBLBLBLBLB",
"LBLBLBLBLBLBLBLBLBLBLBLBKAKABBBBEBEBEBEBBBBBLALALBLBLBLBLBLBLBLB",
"LBLBLBLBLBLBLBLBLBLBOAOAOAOAJAJAHAHAJAJAKAKAOAOABBBBLBLBLBLBLBLB",
"LBLBLBLBLBLBLBLBLBLBOAOAOAOAJAJAHAHAJAJAKAKAOAOABBBBLBLBLBLBLBLB",
"LBLBLBLBLBLBLBLBKAKAABABGAGAGBGBIBIBIBIBDBDBKAKAOAOAKAKALBLBLBLB",
"LBLBLBLBLBLBLBLBKAKAABABGAGAGBGBIBIBIBIBDBDBKAKAOAOAKAKALBLBLBLB",
"LBLBLBLBLBLBLBLBEBEBJAJAGBGBJBJBDBDBPAPADBDBGBGBJAJAABABLBLBLBLB",
"LBLBLBLBLBLBLBLBEBEBJAJAGBGBJBJBDBDBPAPADBDBGBGBJAJAABABLBLBLBLB",
"LBLBLBLBLBLBLBLBHBHBGAGAJBJBGBGBBABABABAFAFADBDBJAJAEBEBLBLBLBLB",
"LBLBLBLBLBLBLBLBHBHBGAGAJBJBGBGBBABABABAFAFADBDBJAJAEBEBLBLBLBLB",
"LBLBLBLBLBLBLBLBHBHBHAHAJBJBCBCBBABAAAAAFAFAMAMAGAGAABABLBLBLBLB",
"LBLBLBLBLBLBLBLBHBHBHAHAJBJBCBCBBABAAAAAFAFAMAMAGAGAABABLBLBLBLB",
"LBLBLBLBLBLBLBLBABABJAJAGBGBCBCBFAFABABAGAGAMAMAKAKABBBBLBLBLBLB",
"LBLBLBLBLBLBLBLBABABJAJAGBGBCBCBFAFABABAGAGAMAMAKAKABBBBLBLBLBLB",
"LBLBLBLBLBLBLBLBOAOALALAJAJADBDBIAIAIAIAIAIAIAIAOAOAKAKALBLBLBLB",
"LBLBLBLBLBLBLBLBOAOALALAJAJADBDBIAIAIAIAIAIAIAIAOAOAKAKALBLBLBLB",
"LBLBLBLBLBLBLBLBLBLBFBFBOAOAJAJAHAHAGAGAKAKABBBBOAOALBLBLBLBLBLB",
"LBLBLBLBLBLBLBLBLBLBFBFBOAOAJAJAHAHAGAGAKAKABBBBOAOALBLBLBLBLBLB",
"LBLBLBLBLBLBNANANANAJAJAFBFBOAOAEBEBEBEBEBEBABABLBLBLBLBLBLBLBLB",
"LBLBLBLBLBLBNANANANAJAJAFBFBOAOAEBEBEBEBEBEBABABLBLBLBLBLBLBLBLB",
"LBLBLBLBNANABABADADANANALBLBLBLBLBLBKBKBLBLBLBLBLBLBKBKBLBLBLBLB",
"LBLBLBLBNANABABADADANANALBLBLBLBLBLBKBKBLBLBLBLBLBLBKBKBLBLBLBLB",
"LBLBNANACACADADAEAEANANALBLBLBLBKBKBKBKBLBLBLBLBLBLBKBKBKBKBLBLB",
"LBLBNANACACADADAEAEANANALBLBLBLBKBKBKBKBLBLBLBLBLBLBKBKBKBKBLBLB",
"NANACACADADAEAEANANALBLBLBLBKBKBKBKBKBKBKBKBKBKBKBKBKBKBKBKBKBKB",
"NANACACADADAEAEANANALBLBLBLBKBKBKBKBKBKBKBKBKBKBKBKBKBKBKBKBKBKB",
"NANADADAEAEANANALBLBLBLBLBLBLBLBKBKBKBKBLBLBLBLBLBLBKBKBKBKBLBLB",
"NANADADAEAEANANALBLBLBLBLBLBLBLBKBKBKBKBLBLBLBLBLBLBKBKBKBKBLBLB",
"LBLBNANANANALBLBLBLBLBLBLBLBLBLBLBLBKBKBLBLBLBLBLBLBKBKBLBLBLBLB",
"LBLBNANANANALBLBLBLBLBLBLBLBLBLBLBLBKBKBLBLBLBLBLBLBKBKBLBLBLBLB"};
